<svg width="40" height="40" viewBox="0 0 40 40" fill="none" xmlns="http://www.w3.org/2000/svg">
    <rect width="40" height="40" rx="10" fill="#F1F3F7"/>
    <path d="M26.6663 27.5C26.6663 26.337 26.6663 25.7555 26.5228 25.2824C26.1996 24.217 25.366 23.3834 24.3006 23.0602C23.8275 22.9167 23.246 22.9167 22.083 22.9167H17.9163C16.7534 22.9167 16.1719 22.9167 15.6987 23.0602C14.6334 23.3834 13.7997 24.217 13.4765 25.2824C13.333 25.7555 13.333 26.337 13.333 27.5M23.7497 16.25C23.7497 18.3211 22.0707 20 19.9997 20C17.9286 20 16.2497 18.3211 16.2497 16.25C16.2497 14.1789 17.9286 12.5 19.9997 12.5C22.0707 12.5 23.7497 14.1789 23.7497 16.25Z" stroke="#06082C" stroke-width="1.5" stroke-linecap="round" stroke-linejoin="round"/>
</svg>
