<svg width="17" height="18" viewBox="0 0 17 18" fill="none" xmlns="http://www.w3.org/2000/svg">
    <path d="M8.38135 11.2498C5.89607 11.2498 3.88135 9.23504 3.88135 6.74976V2.58309C3.88135 2.2727 3.88135 2.11751 3.92658 1.99324C4.0024 1.78492 4.16651 1.62081 4.37483 1.54499C4.4991 1.49976 4.65429 1.49976 4.96468 1.49976H11.798C12.1084 1.49976 12.2636 1.49976 12.3879 1.54499C12.5962 1.62081 12.7603 1.78492 12.8361 1.99324C12.8813 2.11751 12.8813 2.2727 12.8813 2.58309V6.74976C12.8813 9.23504 10.8666 11.2498 8.38135 11.2498ZM8.38135 11.2498V13.4998M12.8813 2.99976H14.7563C15.1058 2.99976 15.2805 2.99976 15.4184 3.05685C15.6021 3.13297 15.7481 3.27897 15.8243 3.46274C15.8813 3.60057 15.8813 3.7753 15.8813 4.12476V4.49976C15.8813 5.19723 15.8813 5.54597 15.8047 5.8321C15.5966 6.60856 14.9901 7.21504 14.2137 7.42309C13.9276 7.49976 13.5788 7.49976 12.8813 7.49976M3.88135 2.99976H2.00635C1.65689 2.99976 1.48216 2.99976 1.34434 3.05685C1.16056 3.13297 1.01456 3.27897 0.938438 3.46274C0.881348 3.60057 0.881348 3.7753 0.881348 4.12476V4.49976C0.881348 5.19723 0.881348 5.54597 0.958015 5.8321C1.16607 6.60856 1.77255 7.21504 2.549 7.42309C2.83513 7.49976 3.18387 7.49976 3.88135 7.49976M4.96468 16.4998H11.798C11.9821 16.4998 12.1313 16.3505 12.1313 16.1664C12.1313 14.6937 10.9374 13.4998 9.46468 13.4998H7.29801C5.82525 13.4998 4.63135 14.6937 4.63135 16.1664C4.63135 16.3505 4.78059 16.4998 4.96468 16.4998Z" stroke="#9395B8" stroke-width="1.35" stroke-linecap="round" stroke-linejoin="round"/>
</svg>
