<svg width="20" height="20" viewBox="0 0 20 20" fill="none" xmlns="http://www.w3.org/2000/svg">
    <path d="M1.69654 10.2687C1.63897 10.0959 1.63891 9.90895 1.69638 9.73619C2.85335 6.2581 6.13424 3.75 10.0009 3.75C13.8658 3.75 17.1454 6.25577 18.3038 9.73134C18.3614 9.90406 18.3615 10.0911 18.304 10.2638C17.147 13.7419 13.8661 16.25 9.99946 16.25C6.13458 16.25 2.85494 13.7442 1.69654 10.2687Z" stroke="#9395B8" stroke-width="1.5" stroke-linecap="round" stroke-linejoin="round"/>
    <path d="M12.5002 10C12.5002 11.3807 11.381 12.5 10.0002 12.5C8.61953 12.5 7.50025 11.3807 7.50025 10C7.50025 8.61929 8.61953 7.5 10.0002 7.5C11.381 7.5 12.5002 8.61929 12.5002 10Z" stroke="#9395B8" stroke-width="1.5" stroke-linecap="round" stroke-linejoin="round"/>
</svg>
